# xmcd
#
# Track frame offsets: 
#        150
#        12775
#        24785
#        37642
#        47290
#        57355
#        67872
#        77377
#        90730
#        103627
#        114240
#        127825
#        139440
#        151437
#        162250
#        174140
#        186557
#        198227
#        210255
#        221327
#        231730
#        242282
#        254220
#
# Disc length: 3549 seconds
#
# Revision: 3
# Processed by: cddbd v1.5.2PL0 Copyright (c) Steve Scherf et al.
# Submitted via: ExactAudioCopy v1.1
#
DISCID=1f0ddb17
DTITLE=Loretta Lynn - Honky Tonk Girl (The Loretta Lynn Collection) - 
DTITLE=Disc 2
DYEAR=1994
DGENRE=Country
TTITLE0=There Goes My Everything (stereo)
TTITLE1=If You're Not Gone Too Long (stereo)
TTITLE2=What Kind Of Girl (Do You Think I Am) (stereo)
TTITLE3=Who Says God Is Dead! (stereo)
TTITLE4=Fist City (stereo)
TTITLE5=You've Just Stepped In (From Stepping Out On Me) (stereo)
TTITLE6=Your Squaw Is On The Warpath (stereo)
TTITLE7=Woman Of The World (Leave My World Alone) (stereo)
TTITLE8=L-O-V-E, Love (stereo)
TTITLE9=Ernest Tubb and Loretta Lynn - Who's Gonna Take The Garbage Out 
TTITLE9=(stereo)
TTITLE10=Coal Miner's Daughter (stereo)
TTITLE11=You Wanna Give Me A Lift (stereo)
TTITLE12=Wings Upon Your Horns (stereo)
TTITLE13=The One You Need (stereo)
TTITLE14=Deep As Your Pocket (stereo)
TTITLE15=Crazy Out Of My Mind (stereo)
TTITLE16=I Know How (stereo)
TTITLE17=Conway Twitty and Loretta Lynn - After The Fire Is Gone
TTITLE18=Conway Twitty and Loretta Lynn - Lead Me On
TTITLE19=I Wanna Be Free
TTITLE20=You're Lookin' At Country
TTITLE21=One's On The Way
TTITLE22=Rated X
EXTD=
EXTT0=
EXTT1=
EXTT2=
EXTT3=
EXTT4=
EXTT5=
EXTT6=
EXTT7=
EXTT8=
EXTT9=
EXTT10=
EXTT11=
EXTT12=
EXTT13=
EXTT14=
EXTT15=
EXTT16=
EXTT17=
EXTT18=
EXTT19=
EXTT20=
EXTT21=
EXTT22=
PLAYORDER=
